# xmcd
#
# Track frame offsets:
#	150
#	24645
#	36101
#	77290
#	93153
#	115097
#	125383
#	163622
#	186717
#	204511
#	225920
#	249608
#	288219
#	303704
#
# Disc length: 4176 seconds
#
# Revision: 1
# Processed by: cddbd v1.5.1PL0 Copyright (c) Steve Scherf et al.
# Submitted via: audiograbber 1.83.01
#
DISCID=b1104e0e
DTITLE=Greg Serrato - Live At The Coach House
DYEAR=2005
DGENRE=Blues
TTITLE0=Backfire
TTITLE1=Phil Billy Stomp
TTITLE2=Like A Tornado
TTITLE3=Something Fine
TTITLE4=Hideaway
TTITLE5=Life By The Drop
TTITLE6=Your Guilty Conscience
TTITLE7=All Along The Watch Tower
TTITLE8=Funky Kenny/Drum Solo
TTITLE9=Holy Smokes
TTITLE10=Child Of The Blues
TTITLE11=Voodoo Child (Slight Return)
TTITLE12=Before You Accuse Me
TTITLE13=Locomotive Strat
EXTD=
EXTT0=
EXTT1=
EXTT2=
EXTT3=
EXTT4=
EXTT5=
EXTT6=
EXTT7=
EXTT8=
EXTT9=
EXTT10=
EXTT11=
EXTT12=
EXTT13=
PLAYORDER=
